<svg xmlns="http://www.w3.org/2000/svg" viewBox="0 0 325.15 311"><title>logo</title><g id="fstop_logo"><path d="M301.56,194.91c-3.48-5.09-6.74-10.41-10.55-15.29-10.09-13-22.48-23.52-35.54-33.33a430.54,430.54,0,0,0-62-38.37,8.36,8.36,0,0,0-3.62-.84c-15.73,0-31.46,0-47.18,0h-2.22l-.11-.51c4.23-2.53,8.43-5.12,12.7-7.59,21.57-12.5,43.75-23.69,67.55-31.37C233.7,63.34,247,60.29,261,60.92a34.33,34.33,0,0,1,5.28.5,5.18,5.18,0,0,1,2.69,1.42,143.64,143.64,0,0,1,34.25,67.92,132.69,132.69,0,0,1,2.1,42.85c-.84,7-2.28,13.92-3.46,20.88A.79.79,0,0,1,301.56,194.91Z"/><path d="M262.73,56.47c-17.5-.87-33.81,3.28-49.78,9-28.65,10.23-55.17,24.69-80.7,41.06a6.5,6.5,0,0,0-1.91,2.18q-11.93,20.53-23.79,41.12c-.33.57-.71,1.12-1.06,1.68l-.69-.1c0-7-.14-13.94,0-20.91.22-9.06.45-18.13,1.09-27.17,1.53-21.33,4.34-42.45,11.83-62.66a79.5,79.5,0,0,1,10.81-20.34A5.59,5.59,0,0,1,132.17,18a142.55,142.55,0,0,1,40.53-2.56q51.2,4.3,88.66,39.57C261.76,55.42,262.13,55.84,262.73,56.47Z"/><path d="M60.93,262.6c12.66.77,24.93-1.52,37-5,23.77-6.85,45.92-17.48,67.38-29.58,8.44-4.76,16.66-9.9,24.92-15a8.84,8.84,0,0,0,2.83-3c7.95-13.62,15.82-27.29,23.72-40.94.3-.52.63-1,.95-1.52l.6.1c0,8.1.18,16.22-.05,24.32-.29,9.9-.63,19.82-1.48,29.69-1.82,21.25-4.88,42.31-13.59,62-2.35,5.32-5.72,10.21-8.81,15.18a5.4,5.4,0,0,1-3.21,2,143.86,143.86,0,0,1-43.48,2.36C114.8,300,86.41,286.9,62.23,264.45a11.22,11.22,0,0,0-2-1.22Z"/><path d="M196.26,114.35c2.9,1.58,5.31,2.85,7.68,4.17,21.23,11.85,41.72,24.82,60.38,40.5,10.88,9.14,21.05,19,28.75,31a92.77,92.77,0,0,1,5.61,10.68,5.52,5.52,0,0,1,.17,3.8q-24.47,69.75-94.64,93.05c-1.06.35-2.16.61-3.25.91a1.78,1.78,0,0,1-.38-.09,3,3,0,0,1,.23-.66c8.21-12.68,12.53-26.83,15.56-41.43,6-28.94,6.89-58.24,6.31-87.68a33.48,33.48,0,0,0-5.13-17.47c-6.92-11.35-13.39-23-20-34.49C197.18,116.1,196.87,115.49,196.26,114.35Z"/><path d="M122.38,20.6c-2.48,5-5.24,9.94-7.44,15.12-4.91,11.56-7.79,23.72-9.83,36.08-4.32,26.08-5.18,52.34-4.56,78.72a33.39,33.39,0,0,0,5.06,17.28c7,11.42,13.45,23.1,20.13,34.68a4.45,4.45,0,0,1,.67,2.07c-5.58-3.14-11.2-6.2-16.72-9.43-19-11.14-37.37-23.26-54-37.81C45,148,35.06,137.89,27.92,125.43c-4.81-8.38-4.88-8.51-1.27-17.46Q53,42.62,120.17,21.12c.66-.22,1.35-.39,2-.55C122.32,20.54,122.47,20.63,122.38,20.6Z"/><path d="M21.65,124.2c3.52,5.12,6.81,10.5,10.67,15.43C42.4,152.5,54.74,163,67.73,172.79a432.59,432.59,0,0,0,62.17,38.48,7.76,7.76,0,0,0,3.42.79c15.59.05,31.17,0,46.76,0h2.46l.15.46c-1,.66-2.05,1.33-3.09,2-23.29,14.18-47.32,26.88-73.19,35.75-14.37,4.92-29,8.61-44.4,7.88a30.44,30.44,0,0,1-5.06-.5,5.57,5.57,0,0,1-2.81-1.59,143.9,143.9,0,0,1-34.37-68.78A132.18,132.18,0,0,1,17.61,148c.78-7.78,2.46-15.47,3.76-23.19A1.61,1.61,0,0,1,21.65,124.2Z"/><path d="M163.64,135.65c-.19,0-.19,0-.23-.27a.26.26,0,0,1,.31-.12l.12.17Z"/><path d="M167,145.08h-7.09l-.09-.1V125.43c.12-.06.25,0,.38,0,.34,0,.65.18,1,.26a.33.33,0,0,1,.2.17c.27.45.55.9.86,1.34s.48.68.7,1a7,7,0,0,0,1.3,1.52,6.45,6.45,0,0,0,.75.49,5.73,5.73,0,0,1,1,.78,9.37,9.37,0,0,1,1,1.13,6,6,0,0,1,.86,1.59,3.45,3.45,0,0,1,.25,1.38c0,.12.1.19.09.3a1.41,1.41,0,0,0,0,.29c0,.21-.14.41-.09.63s-.06.41-.09.62a2,2,0,0,1-.17.59,4,4,0,0,1-.2.58c-.1.16-.09.4-.18.59a2,2,0,0,0-.17.59c-.05.32-.15.63-.19,1a3.78,3.78,0,0,0,.2,1.2,2.38,2.38,0,0,1,0,1,.43.43,0,0,0,0,.11,6.18,6.18,0,0,1-.25,1.35C167.1,144.36,166.9,144.71,167,145.08Zm-.32-10c-.1,0-.12.08-.2.14.12.4-.11.8-.06,1.22,0,0,0,0,.06.05s.13-.08.2-.14v-.52h.12l.14.48h.17c.14-.13.08-.38.3-.51a1.48,1.48,0,0,0,.08.6c0,.1.08.08.15.06a9.05,9.05,0,0,0-.07-1.38c-.18,0-.29,0-.33.18a1.94,1.94,0,0,1-.2.54C166.81,135.6,167,135.23,166.65,135.08Zm-3,.83a2.63,2.63,0,0,0,.35.58c.06,0,.14,0,.18-.05s-.28-.31-.24-.58l.15-.11v-.47l-.19-.19h-.59l-.11.11v1.17c.06,0,.1.18.23.09V136C163.47,136,163.49,135.91,163.62,135.91Zm-2,.47v-1.19c-.07-.06-.11-.15-.24-.07v.45h-.48v-.36c-.09-.05-.12-.19-.24-.1v1.36c.13.06.15-.05.23-.1v-.53h.39l.09.09c.05.19,0,.39.05.55S161.59,136.44,161.66,136.38Zm.38-3.45a2.87,2.87,0,0,0-.27.72c0,.26-.27.49-.15.77.3,0,.15-.33.33-.4h.34c.2.08.05.41.36.4.06-.45-.28-.79-.34-1.21A.29.29,0,0,0,162,132.93Zm-1.35,0v1.47h.7l.12-.12-.14-.13h-.44a1,1,0,0,1,0-.42h.37c0-.13-.06-.17-.12-.23s-.2,0-.28,0,0-.19,0-.27.33,0,.48,0c0-.08,0-.15,0-.21Zm1.37,3.54a.9.9,0,0,1,.23-.4.61.61,0,0,1,.27,0c.14.11.14.28.24.4s.14,0,.2,0c-.11-.34-.22-.68-.34-1,0-.14-.08-.31-.25-.36a.25.25,0,0,0-.16.17,12.12,12.12,0,0,1-.41,1.15s0,0,0,.08Zm.77-3a.72.72,0,0,0,.47.29c.18,0,.21.14.19.29l-.12.12c-.11,0-.22,0-.33,0s-.06-.09-.13-.08l-.07,0v.19a.88.88,0,0,0,.57.11l.33-.29a.6.6,0,0,0-.16-.49c-.11,0-.19-.11-.31-.14s-.18-.07-.15-.32a.68.68,0,0,1,.46.08s0,0,.07,0V133a.91.91,0,0,0-.62-.1A.56.56,0,0,0,162.83,133.47Zm3.3,2.85h-.48v-.46c.13-.08.28,0,.39-.05s0-.15-.1-.22-.21,0-.3-.05,0-.19,0-.28.32,0,.47,0,0-.1,0-.13h-.7v1.39h.72Zm-1.88-3.11v1.19c.14.06.17-.05.25-.13v-1.1h.3c0-.09,0-.17,0-.22h-.87c0,.05-.1.06-.08.11S164.09,133.15,164.25,133.21Zm.17,1.88v1.38h.73c0-.06,0-.1,0-.13s-.32,0-.48-.05v-1.2Z"/><path d="M162.25,133.68a.18.18,0,0,1-.18.16.08.08,0,0,1-.07-.08.14.14,0,1,1,.25-.08Z"/><path d="M162.46,135.58c.08,0,0,.18.12.17-.05.1-.1.17-.21.16s0-.14,0-.22Z"/><path d="M154,128.1l-.1.1h-.27c0-.1,0-.19,0-.28s.2,0,.29,0S154.09,128,154,128.1Z"/><path d="M159.41,139h-4.35V133.4l-.1-.11a4.56,4.56,0,0,0-1.16-.88,12.33,12.33,0,0,0-1.4-.72c-.48-.22-1-.41-1.48-.61s-1-.32-1.47-.54a6,6,0,0,0-1.14-.35c-.31-.08-.61-.18-.94-.28-.11-.36.09-.7.16-1a4.78,4.78,0,0,1,.27-1.05c.74-.44,1.52-.9,2.35-1.29a14.55,14.55,0,0,1,1.59-.62c.28-.1.57-.18.84-.27s.58-.13.86-.23a10.12,10.12,0,0,1,1.09-.25,3.81,3.81,0,0,1,.67-.07,11.73,11.73,0,0,1,1.33-.11,11.63,11.63,0,0,0,1.32,0c.19,0,.35.12.55.1a.72.72,0,0,1,.51.06c.09.07.26,0,.39,0l.11.11Zm-1.94-11.32a1.7,1.7,0,0,0-.2.73h-.13c-.09-.24-.1-.52-.3-.71,0,0,0,0-.07,0s-.1.09-.17.14c.1.42-.13.83-.06,1.26.06,0,.07.1.13.08l.11-.11v-.5l.13-.12c.12.19,0,.48.31.6a2.43,2.43,0,0,0,.26-.6c.06.22.18.41.21.59l0,.17.15-.16c-.16-.43-.06-.91-.23-1.34Zm-3.43.79.25-.25v-.26l-.27-.27h-.62V129l.12.12.13-.17v-.52a4.46,4.46,0,0,1,.52.69c0-.06.12-.08.13-.17Zm-3,.05h.5V129l.13.12.11-.11v-1.35a.21.21,0,0,0-.25,0v.41l-.11.11h-.38v-.57h-.23V129s.06.1.13.1l.1-.11Zm5.17-.59c.06-.08.19-.12.09-.25h-.77V129l.09.09h.61c.05-.07.15-.11.07-.24h-.53v-.4h.32l.17-.13-.13-.12c-.09,0-.19,0-.26,0a.22.22,0,0,1-.09-.31Zm-3.92.84h.44c.21.08.06.34.26.38l.12-.11a8.07,8.07,0,0,0-.44-1.26s-.08-.12-.17-.1c-.29.4-.3.93-.57,1.35l.14.12A.37.37,0,0,0,152.32,128.72Zm2.24-1.09V129l.1.1h.61l0,0,.14-.07-.14-.14h-.33l-.13-.13v-1.1Z"/><path d="M152.51,128.21c.15,0,.2.07.22.2s-.15,0-.23,0A.24.24,0,0,1,152.51,128.21Z"/><path d="M147.15,130.11l1,.31c.86.26,1.69.58,2.55.84.43.14.84.35,1.27.51,0,0,0,0,.06.06.4.22.85.36,1.24.59a6,6,0,0,1,1.44,1v7.24h-7.43c0-.42,0-.84,0-1.26s-.14-1.11-.09-1.67a2.15,2.15,0,0,1-.07-.91c0-.18-.12-.32-.1-.51a.68.68,0,0,0-.06-.5c-.06-.08,0-.22,0-.33a1,1,0,0,0-.08-.51c-.07-.13.07-.32-.08-.46s0-.05,0-.08a2.56,2.56,0,0,0-.08-.67c0-.22,0-.44,0-.66s0-.66,0-1a4.47,4.47,0,0,1,.27-1.5C147,130.45,147,130.24,147.15,130.11Zm2.67,8.67a1.6,1.6,0,0,0-.31,0c-.12,0-.18-.11-.3-.08s-.11.07-.11.16.08.1.11.16a4.36,4.36,0,0,1,.63,0s0,.09,0,.11a1.36,1.36,0,0,0-.43.43s-.1,0-.14,0l.05-.36c-.11,0-.14.06-.21.11v.43l.1.1h.35c.16-.08.1-.28.27-.29s0,.13,0,.2.08.11.21.1l.1-.2c0-.08.06-.25-.08-.36a1.11,1.11,0,0,0,0-.82.12.12,0,0,0,.05-.13c0-.19-.25-.09-.36-.22.11-.14.41,0,.35-.34a6.48,6.48,0,0,0-1,0c0,.17.12.23.26.22s.08.05.08.12-.36,0-.33.29h.77s0,0,0,.05S149.86,138.66,149.82,138.78Zm.86-4.23c.13,0,.13-.18.24-.16a.56.56,0,0,0,.45.08l.11-.1v-.56c-.24,0-.47,0-.68.09l-.09-.08c0,.11-.28,0-.18.24.09,0,.21-.05.29,0s-.26.12-.34.32.07.11.09.2-.08.16,0,.25.17,0,.22.06a.41.41,0,0,1-.24.17c0,.07,0,.14,0,.2H151a1.41,1.41,0,0,0,.46,0c0-.25-.2-.2-.36-.27a.54.54,0,0,0,.37-.27c0-.1-.09-.12-.13-.19Zm-.15-2.65c-.08.25.1.42.11.68,0,0-.17.07-.12.24a1.86,1.86,0,0,0,1-.13c0-.21-.27-.17-.34-.32.33-.1.33-.1.3-.37-.15,0-.31.05-.44,0S150.7,132,150.53,131.9Zm.54,6c0-.18,0-.34,0-.48a1,1,0,0,0,0-.42c-.15,0-.17.14-.28.14s-.05-.16,0-.22h.37c.21.08,0,.31.14.4s.14,0,.19,0v-.43c-.22-.27-.51-.18-.74-.2l-.23.2v.39c.08.23.27.12.4.18-.13.15-.08.31-.06.47Zm-.55-4.87v.45c.08.12.21.14.3.2a.71.71,0,0,0,.67-.2v-.42a.72.72,0,0,0-.68-.2Zm1,3.45c0-.21-.16-.2-.23-.28s.23-.16.24-.37h-1c0,.11,0,.18,0,.24s.21,0,.3,0c-.23.13-.23.13-.32.36Zm-2.11-2.73a.81.81,0,0,0,.58-.07.65.65,0,0,0,.12-.55l-.11-.1h-.86v.53C149.18,133.75,149.33,133.71,149.38,133.8Zm-.17,3.89h.33c.19-.11.13-.25.12-.38s-.2,0-.29.06-.08,0-.11,0l.12-.11h.44c.06.13,0,.28,0,.38s.15,0,.22-.09v-.3l-.19-.25h-.55l-.24.19v.43Zm.87-2c0-.3-.28-.17-.33-.32s.12-.07.18-.09.2-.09.14-.22h-1c0,.08,0,.15,0,.21s.22,0,.31.05v.09c-.09.1-.25,0-.34.09a.86.86,0,0,1,0,.16l0,0Zm0-3.6c-.12-.1-.18-.24-.37-.19s-.18.3-.34.4c-.1-.12,0-.29-.08-.41s-.14.08-.19.12v.43l.1.11h.34c.07,0,.1-.13.18-.15s.1.15.2.15.1-.08.16-.12Zm0,2.36v-.56h-1v.65h.13c.06-.13,0-.28,0-.4a.31.31,0,0,1,.21,0c.05.09-.05.23.08.32.15-.08.12-.26.26-.37v.34Zm-.81,1.63c.11.06.18,0,.23.05s0,.23.07.32.21-.14.2-.29,0,0,.07-.05,0,.23,0,.32h.2v-.56h-1v.57c.06,0,.1,0,.15,0Zm2.12-.62h-.87v.22h.88l0,0,.15-.06Zm-2.32,1.05c.06.12,0,.19.06.24h1v-.11C149.79,136.46,149.45,136.58,149.06,136.53Zm.91-3.87a1.72,1.72,0,0,0-.87.11v.14H150s0,0,.05-.05S150,132.73,150,132.66Z"/><path d="M151.08,134.07h.15l0,.12C151.14,134.26,151.07,134.26,151.08,134.07Z"/><path d="M150.79,133.15h.32l.13.13c0,.12-.07.14-.12.2h-.24C150.77,133.39,150.68,133.3,150.79,133.15Z"/><path d="M149.33,133.34h.5c0,.12-.06.15-.1.22S149.38,133.61,149.33,133.34Z"/><path d="M155.14,139.3h4.36c0,.09-.07.16-.07.25,0,1.77,0,3.53,0,5.3,0,.2.15.37.09.58s0,.23-.06.35a.47.47,0,0,0,0,.43.51.51,0,0,1,.06.31v14.93c0,.12,0,.25-.13.33h-4.14c-.05-.06-.13-.1-.12-.2a1.38,1.38,0,0,0,0-.29Zm2.36,10.33H158c.27-.28.31-.4.26-.9l-.09-.08h-1.51c-.07.15,0,.24.12.33h.43c-.11.28-.43.25-.56.45s0,.18.06.26c-.12.09-.07.22-.06.37.21-.09.28.09.41.2,0,.09,0,.19,0,.27a.76.76,0,0,0-.38.21V151c.16,0,.33.06.46-.09.37-.06.68-.29,1.06-.33a.19.19,0,0,0,.13-.21c-.39-.36-1-.33-1.41-.64a.71.71,0,0,1,.37-.23C157.39,149.47,157.42,149.58,157.5,149.63Zm-.84-3.55c-.1.15,0,.24.13.34h.6c-.22.27-.61.24-.77.55v.17h1.53l.12-.11-.2-.2a3.69,3.69,0,0,1-.56,0c.24-.24.62-.24.79-.59l-.2-.12Zm0,9.26c-.1.15,0,.25.13.35h.4c-.1.26-.4.25-.56.42a.23.23,0,0,0,.2.31.88.88,0,0,1,.42-.27c.21.09.41.26.66.17s.33-.13.29-.36c.16-.15,0-.34.08-.48l-.12-.14Zm1.21,1.6c.13-.07.32.05.39-.15l-.09-.2h-1.52s0,0,0,0,0,.18,0,.27.27,0,.44.08l-.48.48c0,.06.06.12.13.19.32-.11.45-.44.78-.61l.53.54c.12,0,.2-.06.24-.22Zm.3-12h-1.43l-.11.11c0,.21,0,.45-.06.61l.2.2.19-.14v-.47c.11,0,.22,0,.33,0v.44a.57.57,0,0,0,.34,0v-.46a.64.64,0,0,1,.2,0s.08.07.13.12v.43a.24.24,0,0,0,.32-.11V145Zm.21,9.58a13,13,0,0,0-1.62-.67.35.35,0,0,0-.11.32c.2.05.2.05.39.24v.24a1.37,1.37,0,0,1-.4.24v.24c.11-.1.13,0,.21,0A14.23,14.23,0,0,0,158.38,154.51Zm-.39-.58a.92.92,0,0,0,.28-.88l-.1-.09h-1.52s0,0,0,0,0,.18,0,.28h.44c.18.2.06.52.33.66Zm-.88-9.19a.85.85,0,0,1-.15-.61l.12-.12h.62l.25.2c0,.2-.17.35,0,.53h.18a.67.67,0,0,0,.19-.62c-.25-.4-.32-.44-.79-.44h-.42a.72.72,0,0,0-.47.46c-.11.27,0,.41.14.6Zm1.16,3.62v-.9c-.09-.17-.19-.16-.33-.11.05.14-.07.25-.12.39h-1.19v.32H158v.39A.23.23,0,0,0,158.27,148.36Zm-1.52,2.76c-.12.16-.12.16-.12.83,0,0,0,.05,0,.07s.24,0,.33-.16v-.42h1.29v-.24A6.47,6.47,0,0,0,156.75,151.12Z"/><path d="M157.53,149h.32a.61.61,0,0,1,0,.3"/><path d="M157.54,150.34a.1.1,0,0,1-.17,0,.1.1,0,0,1,.17,0"/><path d="M157.66,156c0-.11-.17-.16-.12-.3s.19,0,.32,0"/><path d="M157.41,154.6a.1.1,0,0,1,0-.17.1.1,0,0,1,0,.17"/><path d="M157.58,153.64l-.15-.35h.42"/><path d="M167.86,155.51h-8.09V145.35h7.14a1,1,0,0,1,.13.36,1.36,1.36,0,0,0,.35.67c.18.25.35.5.55.73a3.26,3.26,0,0,1,.42.78c.17.34.18.72.32,1.06a.7.7,0,0,1,0,.25c0,.49,0,1,0,1.49a1.7,1.7,0,0,1-.07.63c-.07.19,0,.43-.09.62.06.27-.12.52-.09.79,0,.1,0,.18-.06.26-.09.32-.12.64-.18,1s-.1.54-.17.8a1,1,0,0,0-.08.38C168,155.27,167.8,155.36,167.86,155.51Zm-6.11-4.79c0-.11,0-.18-.06-.25h-.35a.65.65,0,0,1,0-.34h.44c0-.09.06-.17,0-.23h-.7v1.48c.3,0,.59.06.85-.09.05.05.09.11.18.08a1.16,1.16,0,0,1,.23-.4h.35c.1.15.09.38.38.42a8.74,8.74,0,0,0-.46-1.5h-.22l-.51,1.35c-.18-.21-.4,0-.55-.14v-.38Zm4.05-2.87v1.37H166v-.51c.3.08.31.36.46.52.06,0,.14,0,.19,0s-.14-.33-.17-.57a.66.66,0,0,0,.17-.6.76.76,0,0,0-.79-.28ZM163.43,152h-.6v1.47h.6a1,1,0,0,0,.37-.49A.91.91,0,0,0,163.43,152ZM162,149v-1.19c-.06,0-.06-.1-.12-.09a.27.27,0,0,0-.12.26c0,.28,0,.57,0,.86a.17.17,0,0,1,0,.09h-.4v-1.1c-.07-.05-.09-.13-.2-.12L161,148a3.07,3.07,0,0,0,.1,1.18C161.5,149.39,161.62,149.38,162,149Zm3.49-.58-.16-.08,0-.06h-.4c.06-.09,0-.17.08-.25h.41c0-.07.13-.1.11-.19l-.11-.13h-.59l-.11.11v1.35l.1.1h.6c0-.06.12-.09.1-.21l-.18-.13H165v-.31h.36C165.38,148.58,165.46,148.56,165.46,148.45Zm-1.79-.7s-.08.05-.08.09c-.07.45,0,.91,0,1.38h.22c.08-.13,0-.27,0-.38s.41,0,.56-.25c.17-.45.11-.43-.1-.75C164.07,147.82,163.89,147.67,163.67,147.75Zm-.65,1c.36-.39.37-.47.12-.87-.07-.08-.19,0-.29-.1s-.23,0-.34,0a2.88,2.88,0,0,0-.08,1.47.34.34,0,0,0,.2,0c.05-.15,0-.32.05-.48Zm.21,1.7a.72.72,0,0,0,.48.29c.11,0,.16.07.18.18s-.06.17-.13.23h-.25c-.09,0-.1-.18-.22-.17s-.14.08-.15.18.22.13.29.24h.41l.29-.29a.74.74,0,0,0-.12-.55c-.11.09-.13-.13-.24-.07-.06-.14-.2-.05-.29-.11v-.2a.69.69,0,0,1,.53.06l.13-.12-.21-.21h-.45l-.25.2Zm-1.43,1.85a.24.24,0,0,0-.11-.32h-.49l-.21.2v.32a1.62,1.62,0,0,0,.66.42.25.25,0,0,1-.12.29h-.2c-.15-.05-.17-.18-.29-.16s-.14.09-.13.19.22.14.31.23.43,0,.59-.14a.59.59,0,0,0,.08-.48c-.16-.24-.43-.29-.65-.42,0-.07,0-.14,0-.17C161.46,152.13,161.6,152.32,161.8,152.28Zm2.35-.32v1.48h.7l.11-.12-.14-.14h-.43a1.13,1.13,0,0,1,0-.41h.38v-.24h-.4v-.33h.49c0-.1,0-.17,0-.24Zm.06-2.06c0,.09,0,.17,0,.22s.22,0,.31.06v1.08c.06,0,.08.11.16.12s.1-.08.17-.13v-1.08c.11-.08.24,0,.33-.07v-.16l0,0Zm-2,2.16v1.28c.06,0,.09.13.19.1l.12-.12v-1.25c-.07,0-.09-.12-.2-.11Z"/><path d="M162.54,150.7a.1.1,0,0,1-.14,0c0-.1.06-.15.13-.2A.21.21,0,0,1,162.54,150.7Z"/><path d="M166.47,148.24a.43.43,0,0,1-.4.16.47.47,0,0,1,0-.31A.31.31,0,0,1,166.47,148.24Z"/><path d="M163.07,152.22c.17-.07.26.07.38.09a.74.74,0,0,1,0,.76.85.85,0,0,1-.38.12Z"/><path d="M164.24,148.26c-.13.09-.19.29-.42.2v-.38A.32.32,0,0,1,164.24,148.26Z"/><path d="M163,148v.32c-.08.1-.15.17-.31.09a1,1,0,0,1,0-.35C162.75,148,162.84,148.09,163,148Z"/><path d="M147.47,141.16h7.26l0,0v13.48l0,0s0,0,0,0l0,0s0,0,0,.05a.6.6,0,0,1,.09.33v6.49c0,.13.06.29-.16.38h-6.92c0-.07-.12-.09-.11-.17.06-.78-.18-1.56-.07-2.33a18.57,18.57,0,0,0,.06-2.24c0-.74,0-1.49,0-2.23,0-.35-.12-.69-.09-1a3.94,3.94,0,0,0,0-1c-.07-.41-.16-.81-.27-1.21a3.89,3.89,0,0,0-.21-.66,2.24,2.24,0,0,1-.15-.68,2.72,2.72,0,0,1,0-.9,8.94,8.94,0,0,1,.21-1.36,1.52,1.52,0,0,0,.11-.7c0-.21.1-.38.09-.58a1.25,1.25,0,0,1,0-.58,1.91,1.91,0,0,0,.06-.75c0-1.2,0-2.4,0-3.6a.75.75,0,0,0-.16-.63Zm1.88,6c-.23.19-.07.56-.35.75-.05-.26,0-.51-.26-.68-.26.13-.18.43-.33.62a.49.49,0,0,1-.17-.48c-.08-.06-.11-.16-.22-.12a.24.24,0,0,0,0,.23,7,7,0,0,1,.18.76c0,.14,0,.4.27.41.17-.22.11-.54.32-.8.09.29.16.53.24.77,0,0,0,0,.09,0l.13-.24a11.37,11.37,0,0,1,.25-1.13Zm3.76-1.27a3.11,3.11,0,0,1,.48.61c.07,0,.14,0,.2-.07l-.24-.47.23-.45a.91.91,0,0,0-.28-.4h-.61v1.38c.08,0,.15,0,.22,0Zm-3.21,3.62v1.2h.5a.74.74,0,0,0,.4-.3c0-.13,0-.26.07-.39s-.13-.26-.07-.4a.92.92,0,0,0-.69-.4Zm-1.83-4.3a3.13,3.13,0,0,0,.1,1.16c.07.14.22.11.27.21h.33l.28-.27v-1.2c-.14-.05-.17.06-.24.13v1l-.12.12h-.25l-.11-.11c0-.38,0-.75,0-1.11C148.18,145,148.15,145.1,148.07,145.16Zm1.66,3.31.11.13h.59l.12-.13-.14-.12H150V148c.17,0,.37.08.47-.14-.12-.22-.34-.05-.48-.15s0-.2,0-.28.32,0,.49,0c0-.08,0-.15-.07-.22s-.47-.08-.69.1Zm2.31-2.85c0-.13,0-.23,0-.33h.35c0-.08.15-.1.09-.23h-.72v1.36l.11.11c.55,0,.55,0,.69-.14-.14-.21-.38,0-.55-.14v-.36c.14-.06.28,0,.4,0s0-.14,0-.22Zm-1.38.81c.13.06.15-.06.22-.1v-.24c.09-.2.25-.11.37-.15a.66.66,0,0,0,.29-.44.82.82,0,0,0-.28-.44h-.62v1.36S150.67,146.44,150.66,146.43Zm.67,2.17.3-.29c0-.41-.09-.52-.47-.61a.53.53,0,0,1-.19-.13c0-.07,0-.14,0-.2a.77.77,0,0,1,.52.08.36.36,0,0,0,0-.22.63.63,0,0,0-.74,0c0,.08-.06.11-.07.17a.69.69,0,0,0,0,.25.86.86,0,0,0,.45.29c.25.07.27.16.11.38s-.36,0-.53-.06a.29.29,0,0,0,0,.22A.86.86,0,0,0,151.33,148.6Zm-1.26,8.12c0,.19,0,.39-.07.61-.26-.16-.24-.5-.49-.61l-.12.11c0,.36,0,.72,0,1.07,0,0,0,0,.07.06s.12-.08.19-.16v-.48a3.36,3.36,0,0,1,.32.49c0,.08.09.18.23.12v-1.21ZM148,150.45l.19.21h.47l.32-.27v-.24c-.16-.26-.43-.33-.64-.48,0-.09-.05-.17,0-.25s.24,0,.34.09a.14.14,0,0,0,.21-.09.48.48,0,0,0-.47-.24l-.36.29v.27c.1.09.2.24.31.25s.26.16.37.27c-.1.11-.16.21-.28.25l-.35-.19Zm1.08,9.13a2.94,2.94,0,0,0,.84.19s0,0,.05-.05l-.15-.15c.28-.63.17-.75-.22-1.12h-.26c-.22.07-.26.24-.36.39A1.5,1.5,0,0,0,149.08,159.58Zm2.14-8.93h.72c.06-.11,0-.15-.1-.22h-.33l-.13-.13a.26.26,0,0,1,.12-.29c.12,0,.26,0,.37,0s0-.11,0-.14h-.26c0-.11-.2-.12-.19-.23l.09-.15c.2-.06.35,0,.47-.06s-.06-.15-.11-.23-.43-.09-.61.13Zm-1.11-5.59h-.63v1.33s0,0,0,.06.08,0,.12,0v-.31c.13-.21.32-.1.44-.14l.22-.2v-.5Zm2.26,13.4a3.68,3.68,0,0,0-.08,1.19c.06,0,.1,0,.17,0v-.47c.34,0,.22.48.54.5.11-.22-.1-.34-.13-.5s.17-.23.16-.41l-.08-.18A.64.64,0,0,0,152.37,158.46Zm1.34-.65v-.56a3.73,3.73,0,0,1,.45.7h.11v-1.18s0,0-.05,0a.12.12,0,0,0-.12.06v.63c-.23-.22-.27-.55-.53-.71a3.31,3.31,0,0,0,0,1.25Zm-1.62-1.09a.66.66,0,0,0-.53.1,1.2,1.2,0,0,0,0,1,.5.5,0,0,0,.5,0l.3-.27V157Zm-.09,3c.13-.16,0-.3-.05-.44s-.08-.29-.14-.43-.07-.28-.2-.39a6.45,6.45,0,0,0-.49,1.26c.28,0,.22-.26.37-.31h.23c.22.06.1.24.19.31Zm1.44-1,.49-.15v-.12h-.54l-.1.1v1.13c.23,0,.44,0,.66,0,0-.07,0-.11-.06-.15h-.32c-.12-.11-.19-.2-.08-.33s.22,0,.35-.15C153.76,158.88,153.48,159,153.44,158.73Zm-4.91-.28a.59.59,0,0,0-.54.2v.24c.12.24.4.2.56.34s0,.24-.1.28-.3-.17-.45,0,.06.16.12.21h.4l.2-.18v-.39l-.44-.25a.11.11,0,0,1,0-.12l.11-.12c.13,0,.17.12.28.08s.08,0,.1,0Zm1.74,0-.05,0v1.06c0,.08.08.1.11.16h.39l.23-.18v-1.05c-.06,0-.1,0-.15,0v.89c-.05.06-.09.1-.08.1-.18.09-.25,0-.34-.09v-.73Zm1.45-11.1c.13.06.32-.05.4.19s0,.66,0,1c0,0,0,0,0,.06a.12.12,0,0,0,.13-.06v-1c.09-.25.29-.1.4-.19s-.06-.15-.12-.22h-.75C151.78,147.18,151.7,147.21,151.72,147.34Zm-.45,9.61c.09-.13,0-.18-.1-.24h-.35c-.29.09-.27.32-.34.48s.06.4.11.59a.64.64,0,0,0,.6.15c.05-.06.18-.11.07-.23s-.2.15-.34.08l-.2-.2v-.42l.19-.27C151.08,156.83,151.14,157,151.27,157Zm-2-7.58v1.19l.13.11s0,0,.08,0a3.86,3.86,0,0,0,0-1.4C149.34,149.24,149.31,149.32,149.24,149.37Zm-1.15,7.35v1.21h.65c0-.06,0-.11-.06-.15h-.32c-.07-.07-.13-.11-.13-.21,0-.26,0-.52,0-.78,0,0,0,0,0-.08Zm5.18,1.08c-.13-.06-.31.06-.4-.17s0-.6,0-.93c-.07,0-.11,0-.15.06v1.18h.57Zm-4.36-1.08v1.22h.14v-1.22Z"/><path d="M153.13,145.29c.26,0,.26,0,.41.17a.66.66,0,0,1-.23.24c-.06,0-.09,0-.12,0S153.12,145.42,153.13,145.29Z"/><path d="M150.15,149.43h.19l.29.32a.73.73,0,0,1-.19.66h-.29Z"/><path d="M151,145.79c-.07,0-.09-.09-.15-.12v-.34c.1-.1.21,0,.28,0a.24.24,0,0,1,.12.3Z"/><path d="M149.25,158.69c.17,0,.35-.07.47.13v.48a.56.56,0,0,1-.3.22C149.06,159.24,149.1,159.09,149.25,158.69Z"/><path d="M150,145.29a.26.26,0,0,1,.14.28c-.08.14-.23.15-.34.22s-.16-.23-.15-.38l.12-.12Z"/><path d="M152.64,159c-.16-.14-.16-.14-.17-.33h.29C152.85,158.86,152.75,159,152.64,159Z"/><path d="M152,157.78h-.17l-.2-.21v-.49l.27-.22c.12,0,.19.12.3.21v.52Z"/><ellipse cx="151.63" cy="159.07" rx="0.09" ry="0.14"/><path d="M159.83,162.12v-6.34c.12,0,.23-.06.34,0s.19,0,.28,0h6.85c.18,0,.33-.12.51-.09.14.3-.1.57-.05.86-.18.18,0,.46-.16.63,0,.3-.14.58-.08.88s-.11.29-.09.46a.66.66,0,0,1-.07.47c0,.05,0,.16,0,.24,0,.76,0,1.51,0,2.27,0,.19.12.35.09.55Zm5-4.84c-.06.24.22.37.16.6a.87.87,0,0,1-.31.54c.13.05.13.17.25.16s.12-.31.35-.34c.09.12.13.32.35.34.1-.33-.17-.52-.23-.79a.59.59,0,0,0,.25-.51c-.27-.12-.29.13-.41.26-.12-.12-.14-.38-.5.83.07-.84.07-.84-.2-1.12H164a.76.76,0,0,0-.32.43,2.14,2.14,0,0,0,0,.43.46.46,0,0,0,.26.39,1.09,1.09,0,0,0,.53.07C164.56,158.52,164.64,158.43,164.79,157.28Zm-1.26,1.19v-1.11c-.06-.05-.09-.13-.17-.11l-.16.13v.52a3,3,0,0,0-.38-.65h-.17v1.21c.07.05.11.15.24.07v-.62c.16.24.23.52.5.68Zm-2.31,1v-.38c-.07-.06-.1-.13-.2-.11l-.1.09v1.22a.24.24,0,0,0,.31-.13v-.42a.65.65,0,0,1,.34,0v.52c.09,0,.16.06.23,0V159.1c-.07,0-.1-.15-.23-.09v.47Zm.52-2.22v1.32c.26,0,.5,0,.76,0-.05-.09,0-.17-.06-.23h-.26c-.11-.1-.18-.19-.08-.32s.19,0,.28,0v-.2c-.1-.07-.25,0-.34-.1.1-.17.3-.13.43-.21s0-.14,0-.2Zm.83,1.84v1.1l.1.1h.6a.21.21,0,0,0-.06-.29c-.13-.06-.23,0-.33-.07V159A.22.22,0,0,0,162.57,159.1Zm1.13.88v-.88c-.07-.06-.1-.13-.19-.11l-.12.11v1.08l.1.12h.62A.27.27,0,0,0,164,160Zm-2.79-2.71v1.2l.11.1h.52c0-.07.12-.09.1-.22l-.14-.09s-.05.08-.11.07-.11,0-.17-.06v-.9A.24.24,0,0,0,160.91,157.27Zm1.47,2.93v-1.1c-.07,0-.1-.13-.22-.1l-.09.1v1.19A.24.24,0,0,0,162.38,160.2Z"/><path d="M164.44,158.24c-.1,0-.14.07-.23.09s-.1-.08-.16-.12v-.59c.19-.15.19-.15.39,0Z"/><path d="M147.65,173.12c0-.8,0-1.58,0-2.36a9.15,9.15,0,0,1,.28-1.44c.11-.44.22-.88.3-1.33.12-.66,0-1.33.08-2,0-.15-.11-.23-.1-.38s.06-.27-.08-.37a3.72,3.72,0,0,0-.17-1.05,1.81,1.81,0,0,0-.12-.56c-.1-.17,0-.35-.1-.54a1.56,1.56,0,0,1,0-.65c.35-.07,3.64-.09,5.1,0,0,.06.13.09.11.2a1.92,1.92,0,0,0,0,.24v9.65c0,.14.06.3-.08.42l.07.08-.1.11Zm2.54-3.69h-1.05v.16h.56c0,.24-.16.25-.27.3a.49.49,0,0,0-.3.34h1.16v-.15h-.63a1.72,1.72,0,0,1,.63-.46C150.31,169.53,150.24,169.5,150.19,169.43Zm.69-4.38c.35,0,.69,0,1,0,.11,0,.14-.07.19-.12s-.25-.12-.38-.13l-.09,0v-.38c.14-.05.28,0,.4-.06s0-.09-.05-.12h-1s0,0-.06.05a.12.12,0,0,0,.06.12h.43a1,1,0,0,1,0,.42h-.46Zm-1.4-.65c0,.24-.26.21-.35.37s0,.14.08.2c.2-.09.3-.32.49-.42s.12,0,.17,0l.35.35s0,0,.07,0v-.14c-.06-.14-.25-.18-.26-.34s.2,0,.25-.1,0-.08,0-.1h-1.11s0,0,0,0,0,.08,0,.11ZM152,166l.11-.12v-.43l-.11-.11h-.56a2.4,2.4,0,0,0-.54,0v.66l.14-.13c0-.12,0-.26,0-.38s.2,0,.29,0,.08.25.13.36c.23-.06.07-.26.15-.38h.22v.35Zm-2.83,2.13h1.11a.14.14,0,0,0,0-.16h-.35c-.17-.16-.13-.28,0-.4s.27,0,.38-.05,0-.09,0-.12c-.37,0-.74,0-1.11,0,0,.08,0,.12.06.16h.43a1.46,1.46,0,0,1,0,.42h-.45A.12.12,0,0,0,149.16,168.17Zm2.28.83a.94.94,0,0,0,.18-.41c0-.11.09-.19.25-.14V169a.55.55,0,0,0,.24-.43c0-.08-.07-.16-.11-.24s-.19-.14-.33-.09-.21.4-.33.54-.22,0-.3-.09a.51.51,0,0,1,.08-.38s0,0,0-.07-.16.07-.21.13v.47l.11.13Zm-1.07-2a.49.49,0,0,0-.22-.47,1,1,0,0,0-.39-.15c-.38,0-.58.18-.72.53.17,0,0,.21.14.29s.13,0,.19,0a.55.55,0,0,1-.06-.43l.11-.11H150l.1.1c.06.15,0,.32,0,.45Zm-.06-.58a.91.91,0,0,1,.08-.6c-.1-.08,0-.26-.18-.27s0,.18-.12.24c-.31,0-.64,0-1,0v.11s0,.08.05.12h1C150.07,166.2,150.16,166.28,150.31,166.41Zm-1,2.34c.13,0,.23,0,.32,0s-.05.31.17.38v-.4c.14,0,.24,0,.35,0v.36h.14v-.56h-1.13v.67l.15-.14Zm1.74-2.32h1c0-.06.09-.05.06-.12l-.1-.11c-.26,0-.54-.06-.8.09-.07,0-.1-.12-.21-.08l-.09.08v.57c.06,0,.1,0,.15-.05Zm-.15.68v.55a.11.11,0,0,0,.12,0c.08-.12,0-.26.06-.4h.9s0,0,.06,0,0-.08,0-.12Zm-1.75-1.82h1.07c.11,0,.09-.07.07-.15h-1.14Zm3,2.67c-.23-.16-.23-.16-.38-.15C151.89,168,151.89,168,152.16,168Z"/><path d="M154.73,168.64h-1.4V162.4c.38-.07,11.87-.1,13.93,0l.11.12c-.06.28.09.57.08.88s0,.61,0,.91c-.07.48-.12.95-.22,1.43s-.23.77-.28,1.17a4.34,4.34,0,0,1-.16.47,6.69,6.69,0,0,0-.33,1.39c-.14.18,0,.4-.09.59a8.63,8.63,0,0,0-.06,2,5.46,5.46,0,0,0,.13.89,2.86,2.86,0,0,1,.1.83c-.36.06-7.66.08-9.09,0V164h-2.72Zm9.06-.89c0,.05.12.07.1.15s.09.24.1.37,0,0,.06,0,.11-.07.18-.12c0-.32.15-.61.17-.95h-.14a1.21,1.21,0,0,1-.23.54l-.16-.54c-.13,0-.22.07-.21.15s-.08.17-.09.26-.08.09-.17.06a1.14,1.14,0,0,0-.11-.53l-.18.11c.25.32.12.73.35,1C163.75,168.22,163.57,167.89,163.79,167.75Zm-4.33.55a1.59,1.59,0,0,1-.11-.73c0-.17,0-.17-.15-.39-.19.16-.15.44-.32.63-.19-.18-.06-.51-.32-.65l-.12.12c0,.17,0,.35,0,.53s-.17.31-.05.49h.14a.62.62,0,0,1,.11-.48c.11.12.1.32.26.4.14-.11.15-.28.24-.41l.12.13c0,.11,0,.26,0,.37Zm6-.1a2.72,2.72,0,0,0-.1-1h-.05v.44c-.1,0-.07.14-.13.2-.21-.15-.17-.53-.53-.58v1.07h.16v-.58a1,1,0,0,1,.35.48.17.17,0,0,0,.18.11Zm-5.19.08c.26.18.43.15.66-.1a.83.83,0,0,0,.15-.43.46.46,0,0,0-.15-.39c-.23-.24-.41-.27-.66-.09Zm1.81-.3a.58.58,0,0,0,.48.42.89.89,0,0,0,.43-.3v-.66a.66.66,0,0,0-.62-.28l-.29.28Zm-.57-.5v.8l.17-.12v-.84h.21c0-.07,0-.12,0-.14h-.62c0,.05-.1.06-.08.15A.29.29,0,0,1,161.51,167.48Zm-1.75-.27a7.67,7.67,0,0,0,.05,1.09c.06-.15,0-.32.1-.49A.53.53,0,0,0,159.76,167.21Z"/><path d="M160.58,168.25l-.14-.13v-.64l.1-.16c.16,0,.19.14.29.18V168Z"/><path d="M162.82,168l-.19.2c-.2.07-.27-.1-.38-.19v-.52l.29-.21c.11,0,.18.14.28.23Z"/><path d="M153.33,173v-4.25l0,0,0,0h1.42v-4.5l.12-.12h2.45V173h-2.77c-.14,0-.29,0-.42.08a.34.34,0,0,1-.28,0C153.73,173,153.54,173.06,153.33,173Zm2.51-6.92a.28.28,0,0,1-.3.24,1.66,1.66,0,0,0-.38.11v0h.54l.06.17c.05,0,.09,0,.14,0s0-.29-.13-.44a.26.26,0,0,0,.12-.3l-.18-.18c-.2,0-.22.22-.35.31s0-.11,0-.16,0-.14-.06-.17h-.09v.39c.05.12.16.09.27.1l.22-.22s0,0,.06,0S155.69,166.12,155.84,166.11Zm.41-.1v.56l.13.05a.27.27,0,0,1,0,.2l-.14.05s0,.09.05.14c.22-.12.51-.13.73-.37a2.57,2.57,0,0,1-.62-.24c0-.09,0-.2,0-.3s.11.17.2.26l.15-.2.06.17H157c0-.15.05-.3-.1-.38S156.47,166,156.25,166Zm-.37,2.64v-.79l-.18-.18h-.43a.67.67,0,0,0-.19.29c.11,0,0,.16.13.19h.07c.08-.09,0-.21.06-.3h.38v.49h-.57c0,.06,0,.11,0,.15h.5l.06.16Zm.36-2.82h.65c0-.07.09-.06.06-.14s-.16,0-.22,0v-.2c.08,0,.18,0,.24-.06s0-.08,0-.1h-.72v.11c.09.07.27,0,.31.16s-.23.08-.32.16Zm-.47.92a5.72,5.72,0,0,0-.6,0c-.07.2.2.1.14.26l-.15.19c.12.09.15,0,.25-.06a.35.35,0,0,0,.38.07C156,167.09,155.94,166.94,155.77,166.75Zm.46,1.38c.07.08.17,0,.24.07l-.23.24c.12.17.22-.07.36,0a.24.24,0,0,0,.35-.09c0-.23,0-.23-.1-.37h-.62ZM155.06,165c.12.09.1.25.22.29h.5c0-.12.15-.22.12-.37l-.12-.11h-.6C155.14,164.84,155.16,164.93,155.06,165Zm1.88,2.94c0-.26,0-.26-.09-.4h-.61v.4h.13c0-.07,0-.17,0-.23s.11.17.18.24.05-.2.19-.24l0,.24Zm0-1,0,0-.13.19h-.43l-.14.16h.58c0,.07,0,.14.07.17h.1Zm0-1.77v-.44c-.21.17-.42.11-.62.13,0,0-.12.07-.08.16h.51C156.82,165.08,156.78,165.21,157,165.17Zm-1.05.31,0,0h-.71c0,.06,0,.11,0,.14h.61l0-.07Zm0,2a1.11,1.11,0,0,0-.72,0Z"/><path d="M155.8,165c-.13.16-.25.16-.34.22s-.16-.1-.14-.24"/><path d="M155.72,181.77v6.09h-2.44c0-.1-.07-.23-.12-.34a14.25,14.25,0,0,1-.66-1.63c-.11-.31-.26-.61-.38-.92s-.3-.79-.46-1.17l-.51-1.2c-.11-.27-.21-.54-.33-.83Zm-3.39,1.64c.17,0,.32,0,.36-.15s.23,0,.3-.06a.15.15,0,0,0-.24,0c-.17,0-.32,0-.37.16s-.17,0-.2.06S152.28,183.51,152.33,183.41Zm1.78,1a.35.35,0,0,0,0-.37.34.34,0,0,0,.05.36s0,.1,0,.15h.22l.23-.19c0-.14,0-.27,0-.37.16.05.1.22.17.32h.1c.05-.06,0-.13,0-.19l-.2-.22a.26.26,0,0,0-.29.12v.34l-.07-.06-.06.19-.11,0S154.21,184.39,154.11,184.42Zm-1.39.43c.07-.17,0-.28-.06-.4.21-.15.5-.13.7-.39a2.18,2.18,0,0,0-.77.31c-.05.18,0,.31.06.46a.62.62,0,0,1,.43.31c0,.12-.14.13-.15.26.35-.06.5-.35.77-.57C153.34,184.83,153,184.83,152.72,184.85Zm1.09-2.21c.12-.16.35-.17.42-.37,0,0-.07,0-.09,0l-.58.39c-.06,0-.1.1-.05.17s.31-.19.48,0c0,.23-.28.17-.32.36h.62l.08-.07s.12,0,.09-.07-.27,0-.37,0,.26-.11.29-.28l-.12-.12A.49.49,0,0,1,153.81,182.64Zm-.11,2.68a.65.65,0,0,0-.62.28c0,.3,0,.3.11.45a.54.54,0,0,0,.47-.14c0-.1-.08-.13-.13-.18-.07.1-.06.25-.23.24a.23.23,0,0,1-.13-.29.53.53,0,0,1,.56-.18c.17.05,0,.23.14.31a.49.49,0,0,0,0-.29Zm.51,1.14c.1-.18-.07-.27-.09-.41-.34,0-.57.24-.87.28.14.09,0,.33.21.38.08-.1,0-.25.09-.34s0-.07.08-.05.09.16.15.23.08,0,.13-.05-.16-.14-.06-.27H154C154.09,186.3,154.09,186.43,154.21,186.46Zm-1.56-4.18c-.19.3-.54.36-.67.69a1.89,1.89,0,0,0,.58,0,1.15,1.15,0,0,0,.34-.14l-.66,0C152.37,182.63,152.67,182.63,152.65,182.28Zm2,1.48c.09-.21-.06-.3-.1-.44a1.53,1.53,0,0,0-.77.29c0,.19.08.26.11.4a.24.24,0,0,0,0-.32c.11,0,.17-.13.29-.11s.06.19.17.24.07-.07,0,0c.06-.12-.14-.14-.08-.26s.09-.14.2-.12Zm-.4,1.31c.29,0,.49-.18.74-.24,0,0,.09.12.19.12-.15-.12,0-.39-.25-.44,0,.19,0,.28-.25.32S154.41,184.86,154.3,185.07Zm-1.13-1.51,0-.09c-.25.15-.54.16-.78.32V184s.07.1.16.09v-.27Z"/><path d="M163.41,187.53a5.89,5.89,0,0,1-1,0c-.46-.09-.93,0-1.37-.08-.63-.11-1.26,0-1.87-.09s-1.08,0-1.62-.07a1,1,0,0,0-.62.2c-.17.1-.4.1-.57.21-.12-.06-.18.1-.29.09l0,0v0c0-1.95,0-3.91,0-5.88h7.43ZM159.5,186l.07-.2.17.17c.14,0,.28.05.37-.11v-.43c-.1-.08-.23,0-.32-.07s.07-.1.14-.11a.12.12,0,0,0,.17.05c0-.08.05-.16,0-.23h-.31c-.19.08-.22.28-.33.49-.08-.21-.08-.39-.23-.5-.28.13-.21.48-.38.67-.07,0-.14,0-.21-.06v-.49c-.07-.06-.11-.16-.24-.08v.62H158v-.64c-.13,0-.16.05-.23.1v.68l.1.1a.67.67,0,0,0,.49-.07c.16.16.36.06.51.09s.12-.18.17-.25h.17C159.31,185.79,159.31,185.91,159.5,186Zm2.62-2.43-.14.18c-.09-.09-.16-.21-.31-.17-.39.36-.4.48-.12.89a.58.58,0,0,0,.48-.07c.08,0,.12.14.24.05v-.22c0-.08.06-.07.12-.07s0,.35.27.33v-.81l-.09-.09c-.2,0,0,.29-.28.34C162.26,183.79,162.29,183.63,162.12,183.55Zm-1.39.28c0-.16-.09-.27-.23-.28s.05.29-.18.25,0-.19-.09-.24h-.11a1.76,1.76,0,0,1,0,.23c0,.11.06.16.08.25s0,.18,0,.23,0,.22.18.18,0-.21.1-.26,0-.09.09,0,0,.22.05.31a.14.14,0,0,0,.15-.06.67.67,0,0,0,.15-.47l.05,0,.11.12c-.13.09-.07.22-.08.34s.1.14.21.11a4.66,4.66,0,0,0,0-.86c-.17-.11-.2.1-.3,0l-.09-.07C160.81,183.62,160.79,183.72,160.73,183.83Zm-1.34-.17v.7c.07.06.11.16.23.08s0-.16.07-.24l.21.27.12-.11v-.79c-.21,0-.2.15-.27.23s-.07-.23-.23-.25Zm-2.24.25c0,.11,0,.2.07.27s0,.08,0,.1l-.25-.2.14-.27c.1,0,.22,0,.3-.07-.07-.21-.23-.2-.37-.18l-.22.2v.5l.19.19h.36l.1-.1V184A.24.24,0,0,0,157.15,183.91Zm1,.42c-.1-.19-.1-.19,0-.56l-.29-.21h-.17l-.11.11v.79h.15v-.32c.19.06.15.27.29.32Zm.64-.64c.07.25-.11.54.11.77h.41c-.05-.09,0-.16-.09-.27s-.13.1-.17,0c.13,0,.26-.07.24-.22s-.2,0-.22-.11.16,0,.22-.06,0-.14,0-.2h-.35Zm-.08.77c0-.22-.17-.2-.24-.3.13,0,.25-.07.25-.22s-.2,0-.25-.09.28,0,.23-.27h-.38l-.09.09v.68l.1.11ZM157.12,186c.15-.29.35-.57.24-.92-.25,0-.19.21-.24.32-.18-.05-.11-.23-.18-.32s-.17.07-.22.17C156.92,185.43,156.87,185.76,157.12,186Zm3.17,0c.19,0,.35,0,.49-.05,0-.24-.24-.17-.33-.25s.12-.11.18-.13.07-.07.07-.12-.2,0-.25-.09v-.1c.09-.06.23,0,.32-.06s0-.09,0-.11h-.47Zm-2.81-.13c.05,0,.07.12.16.09v-.82s0,0,0-.06-.08,0-.11,0Z"/><path d="M168.37,187.77c-.06,0-.09-.08-.17-.07s-.3,0-.45,0c-1.35.07-2.69-.15-4.05-.07v-5.78h4.78v5.56C168.48,187.54,168.52,187.69,168.37,187.77Zm-3.23-2.47c-.17.12-.32.23-.3.39l.24.27h.22l.12-.12c0-.06,0-.13,0-.19s-.17.15-.29,0,.06-.15.11-.22a.56.56,0,0,1,.32.05c.16,0,0,.26.08.35.19-.08.13-.23.13-.36l-.2-.21c-.15,0-.3,0-.56,0a4.06,4.06,0,0,1,.83-.3c-.1-.11-.13-.23-.24-.21s-.18-.09-.3-.09-.21-.14-.17-.33c.12.09.13-.08.24-.08a.33.33,0,0,0,.29.08l.12-.12-.14-.12H165l-.11.11v.52l.25.17c0,.16-.16.17-.25.23S164.93,185.26,165.14,185.3Zm2.1-2.62h-.89v.51c.06.12.21.16.24.32s-.19.13-.17.26l.08.09c-.08.09-.21.15-.16.32s.13.18.25.21c.27.07.24-.32.45-.33s-.07.18,0,.31.11,0,.07.15l-.13.14h-.53c0,.06,0,.11.06.15H167c.08.08,0,.18.08.24l.13-.12c0-.18.05-.38-.1-.55.12-.11.09-.23.09-.37s-.12-.2-.26-.19-.2.31-.38.41v-.46c.2-.11.45-.06.58-.29-.17-.27-.48-.21-.68-.37v-.17c.06,0,.09-.14.2-.12s0,.19.09.25h.07c.13,0,0-.24.17-.25s0,.18.05.28,0,0,0,0l.11-.11Zm-1.49.68s-.09-.06-.08-.13.14-.11.06-.24c-.15.06-.24-.08-.42-.12a1,1,0,0,0,.42-.29c-.3-.05-.53.16-.8.19V183l.66.23,0,0h-.51c-.09.09-.09.09-.11.24h.69Zm-.66,3.17c0-.09,0-.21,0-.31h.11c.07.07,0,.17.07.24h.1c.06-.07,0-.17.06-.23h.08c.12.09,0,.24.09.34s.08,0,.1,0v-.48H165l-.11.11v.28C164.92,186.48,164.94,186.56,165.09,186.53Zm-.13-2.87-.11.1c0,.22,0,.22.21.29s0-.16.08-.24h.62l0-.15Z"/><path d="M168.79,181.86h2.1a8.12,8.12,0,0,1,.45,1.34,1,1,0,0,1,.09.42,1.05,1.05,0,0,0,.09.38,8.78,8.78,0,0,0,.21,1,.7.7,0,0,1,0,.32c0,.12.09.18.09.3a5.25,5.25,0,0,1,.08.59,2.93,2.93,0,0,0,.09.53,5,5,0,0,1,.08,1h-3.3Z"/><path d="M157.08,181.4h-6.33a1.94,1.94,0,0,1-.35-.74,6.6,6.6,0,0,1-.33-.77c-.12-.39-.3-.76-.43-1.14a1.61,1.61,0,0,0-.8-.9c-.36-.19-.34-.2-.53-.6a4.47,4.47,0,0,1-.25-.81c-.07-.26-.12-.53-.17-.8s-.1-.81-.17-1.21,0-.67-.07-1c.36-.07,7.94-.1,9.43,0v8Zm-5.62-3.84v-.93c-.07,0-.07-.11-.14-.09s0,.28,0,.39h-.45c0-.14,0-.28-.06-.41l-.13.13c0,.26,0,.52,0,.78a.22.22,0,0,0,.16.24v-.43c.23-.18.28-.18.5,0l0,.44,0,0Zm4.22-1a3.89,3.89,0,0,0-.42,1.17c.19-.07.16-.28.3-.33h.24c.15.06.1.27.3.31A4.08,4.08,0,0,0,155.68,176.52Zm-1,.09h.21c.06,0,.14,0,.16-.07h-.54l-.11.1a.5.5,0,0,0,.1.4c-.2.14-.06.34-.1.52l.13.13a2.39,2.39,0,0,0,.53,0v-.14h-.35c-.18-.15-.18-.27,0-.39s.21,0,.3-.06a.3.3,0,0,0-.26-.14c-.07,0-.14-.07-.15-.19Zm-2.37.91H152v-.26c.08-.23.28-.11.39-.18-.06-.23-.28-.08-.4-.17a.24.24,0,0,1,.1-.28c.11,0,.22,0,.33-.09h-.59v1l.1.1h.45l0,0A.84.84,0,0,0,152.35,177.52Zm1.1,0a.76.76,0,0,0,.55.12.53.53,0,0,0,.2-.38l-.31-.36a.21.21,0,0,1-.28-.16c.1-.3.32-.09.49-.07v-.16h-.46l-.2.2s0,.13.07.23l.52.27a.88.88,0,0,1,0,.17,1.06,1.06,0,0,1-.09.11c-.12,0-.22,0-.31,0s-.08-.12-.16-.05Zm-3.52-1a.7.7,0,0,0-.22.87c.06.17.18.19.28.24a.26.26,0,0,0,.36-.05s0,0,0-.08H150l-.23-.2v-.5l.2-.21c.14-.09.21.11.35.08a.12.12,0,0,0,0-.15Zm2.88,1.13h.44s0-.09,0-.12-.27,0-.42-.07v-1c-.06,0-.1,0-.14,0v1Z"/><path d="M163.44,176.79h.2l.2.25a.65.65,0,0,1-.11.46c-.1,0-.16.13-.29.1Z"/><path d="M157.4,173.58l.1-.1h8v8h-8l-.1-.11Zm3.53,3.08c.11.37-.18.72,0,1.1.12.05.16-.06.22-.12s0-.25,0-.35c.23,0,.06.42.36.39.12-.13.1-.32.17-.48,0,.21.17.36.11.56.07,0,.11,0,.15,0a3.76,3.76,0,0,0-.08-1.11l-.11-.1c-.22.12-.13.43-.35.57-.07-.2-.14-.38-.21-.55s0,0-.07,0S161,176.62,160.93,176.66Zm2.89,1.11a3.78,3.78,0,0,1,.19-.36c.17-.19,0-.34,0-.51s-.14-.21-.24-.29a.79.79,0,0,0-.46-.08l-.12.12v1l.12.11Zm-4.37-.12c0-.29,0-.58,0-.87a.21.21,0,0,0-.14-.23.2.2,0,0,0-.07.06c-.12.18,0,.39-.08.58-.25-.15-.17-.57-.53-.67v1.24h.15v-.66a.34.34,0,0,1,.17.19,3.62,3.62,0,0,0,.24.43s.05.06.13.05Zm1.06-1c-.39-.17-.55-.13-.81.27,0,.67,0,.83.45.95.48-.19.54-.29.54-.86A.77.77,0,0,1,160.51,176.63Zm2.47,1.14a2.46,2.46,0,0,0-.45-1.24,5,5,0,0,0-.43,1.15.07.07,0,0,0,.06.09c.21,0,.16-.26.32-.33s.12,0,.19,0S162.75,177.77,163,177.77Z"/><path d="M160.22,177.6h-.15c-.11-.1-.22-.23-.19-.37a.67.67,0,0,1,.19-.45h.25c.16.17.12.39.13.62Z"/><path d="M162.68,177.18c0,.1-.07.1-.13.09s0-.14,0-.21S162.64,177.15,162.68,177.18Z"/><path d="M170.67,181.48H166a.17.17,0,0,1-.1,0l0,0a.11.11,0,0,1,0-.09v-7.72a.13.13,0,0,1,.13-.13h.59a.14.14,0,0,1,.11.06,1.33,1.33,0,0,1,.13.52c.09.41.26.81.39,1.21a4.21,4.21,0,0,0,.28.66,1.34,1.34,0,0,1,.26.64c.19.09.15.32.28.46a1.57,1.57,0,0,1,.22.45,3,3,0,0,0,.24.47,1.2,1.2,0,0,1,.25.44c.34.3.48.76.82,1.06.1.09.11.24.22.32a.4.4,0,0,1,.21.29s0,.05.06.05c.34.1.39.44.57.68a1,1,0,0,1,.19.57A.12.12,0,0,1,170.67,181.48Zm-4.3-.56c.15.15.29.08.45,0a.13.13,0,0,0,.08-.1c0-.07.14-.1.09-.19s-.05-.27-.09-.41a.11.11,0,0,0-.06-.07c-.13-.09-.27-.23-.45-.08a.12.12,0,0,0,0,.1v.66A.16.16,0,0,0,166.37,180.92Zm.46-1.39a.15.15,0,0,0,.08-.1.17.17,0,0,0,0-.12l-.19-.15a.13.13,0,0,1,0-.19c.1-.12.14-.26.27-.34-.22-.1-.23.17-.38.13s0-.13-.09-.16l-.08.07a.18.18,0,0,0,0,.09v.65l0,0,.05.14c.09,0,0-.17.17-.17Zm.7,0c.08-.09,0-.26.15-.31s.2,0,.27-.11a.14.14,0,0,0,0-.09c0-.13.05-.27-.08-.37a.1.1,0,0,0-.07,0h-.25a.12.12,0,0,0-.1,0l0,0a.12.12,0,0,0,0,.09v.56a.13.13,0,0,0,0,.1Zm.08,1.48,0,0a.13.13,0,0,0,0-.16c-.06-.12-.08-.26-.14-.36a.42.42,0,0,1,0-.2.13.13,0,0,0-.25,0l-.12.36c0,.09,0,.2.14.18h0C167.51,180.7,167.55,180.86,167.61,181Zm1-2.22c-.1-.21-.23-.17-.33-.17a.11.11,0,0,0-.08,0,.31.31,0,0,0-.08.33s0,0,0,0a.18.18,0,0,0,.13.08.13.13,0,0,1,0,.26.16.16,0,0,0-.12,0c.08.15.2.13.32.13a.2.2,0,0,0,.08,0l.08-.08a.14.14,0,0,0,0-.15c0-.07,0-.16,0-.22h0a.13.13,0,0,1,.06-.24Zm-1,1.3c-.05.21.08.32.2.45a.12.12,0,0,1,0,.09v.3h.14v-.31a.13.13,0,0,1,0-.08c.11-.12.1-.29.23-.39-.15-.08-.21,0-.24.1s0,.13-.15.11A.31.31,0,0,0,167.68,180.07Zm-.67-.67s.06.11.13.08v-.93A1.44,1.44,0,0,0,167,179.4Z"/><path d="M166.53,180.58a.27.27,0,0,1,.28.11.21.21,0,0,1-.28.13A.18.18,0,0,1,166.53,180.58Z"/><path d="M166.72,180.41c-.13,0-.16-.07-.23-.11l.13-.13C166.67,180.24,166.79,180.27,166.72,180.41Z"/><path d="M167.78,179c-.13,0-.18-.08-.22-.2"/><path d="M167.35,180.43c.09,0,.07.08,0,.16-.06-.07-.06-.11,0-.16"/><path d="M167.44,196.63a.73.73,0,0,1-.53-.2l-.44-.25c-.64-.35-1.3-.67-1.92-1l-.67-.38a1.58,1.58,0,0,1-.29-.22v-6.47l.12-.13a14.52,14.52,0,0,0,1.49.1,7,7,0,0,1,1.52,0c.72.11,1.45,0,2.16.08,1,.14,2.07,0,3.11.08a.9.9,0,0,1,.19.58,11,11,0,0,1,.08,1.28,1.35,1.35,0,0,1,.07.84,7.64,7.64,0,0,1-.16,1.25,4.92,4.92,0,0,1-.45,1.09,3.58,3.58,0,0,1-.91,1.06c-.22.18-.47.33-.71.49l-.69.43a7.74,7.74,0,0,0-.73.43A4.67,4.67,0,0,0,167.44,196.63Zm-1.59-4.7c-.21.1-.26.1-.34,0s0-.23.09-.31.2,0,.27,0c0-.24-.4,0-.39-.28s.3-.13.41-.23,0-.1,0-.12h-.53v1.23a1.18,1.18,0,0,0,.68-.09c.06.06.1.12.21.07a.27.27,0,0,1,.13-.3h.25c.15.08.11.33.32.32A.13.13,0,0,0,167,192c-.09-.28-.18-.56-.29-.83,0-.11-.06-.28-.27-.25l-.36,1s-.05,0-.07,0S165.91,192,165.85,191.93Zm1.32-2.76c-.13.27.12.47.05.69.14.11,0,.32.15.44s0,.14.13.13.11-.4.27-.56c.2.14,0,.45.3.57.22-.25.13-.61.3-.89,0-.09,0-.23,0-.35h-.11c-.16.13-.11.34-.15.5H168l-.17-.53c-.27.14-.28.38-.29.62C167.27,189.65,167.48,189.29,167.17,189.17Zm-.19,1c-.07-.14.07-.2.07-.33-.17-.1,0-.29-.12-.41l-.16-.2h-.5a.77.77,0,0,0-.29.71,1.07,1.07,0,0,0,.37.52h.34Zm2.47-.82v.82a.41.41,0,0,0,.15.29s.05,0,.1,0v-.5c.27.11.27.4.45.52l.12-.11c-.09-.15-.23-.32-.15-.47a1.77,1.77,0,0,0,.08-.54,1,1,0,0,0-.63-.11Zm-2.61,4.59h.42l.29-.3V193a.9.9,0,0,0-.42-.29c-.1,0-.28-.07-.4.12v1Zm.19-2.63.33.31c.22,0,.22,0,.27.28l-.13.15-.34-.17c0,.06-.12.09-.11.18a.52.52,0,0,0,.7,0c.25-.19.09-.36,0-.52l-.48-.23c0-.05,0-.08,0-.1l.07-.12c.31.12.35.13.41,0s-.08-.14-.12-.19h-.43C167.13,191,167.12,191.16,167,191.28Zm-1.17,2c-.13-.14-.36-.06-.45-.25l.09-.09c.12-.06.27,0,.38-.05s0-.15-.1-.22h-.31l-.23.19v.24c.12.26.42.24.54.39l-.15.21c-.19.12-.26-.12-.39,0s.07.16.12.22h.41l.2-.2A.52.52,0,0,0,165.86,193.28Zm3.33-3.58c-.14,0-.37.06-.4-.21l.12-.13c.11,0,.25,0,.38,0l0-.12h-.64v1.21h.54l.12-.11-.16-.13c-.08,0-.22,0-.34,0a.26.26,0,0,1,.12-.29c.09,0,.21,0,.29-.05Zm-.75,3.49c-.12-.08-.26,0-.39-.06v-.22h.4v-.22h-.56v1.2h.56c0-.06,0-.1,0-.14h-.24c-.14-.09-.19-.19-.1-.32l.26,0C168.4,193.33,168.5,193.3,168.44,193.19Zm0-1.91c.08-.21.25-.15.35-.22s0-.1,0-.12H168v.17c.14-.06.24,0,.33.13v.92h.14Zm-3.1-2.08c-.08.24.07.52-.11.75.15.13,0,.33.1.47h.55c.05-.14-.06-.17-.09-.2s-.22,0-.32-.09v-.93Zm1.13,4.59c0-.3,0-.59,0-.88a.27.27,0,0,0-.09-.21s0,0-.06,0l-.09.09v1.11C166.36,194,166.39,193.85,166.47,193.79Z"/><path d="M166.5,191.6l.09-.08c.13.06,0,.15,0,.25Z"/><path d="M166.77,190.26h-.35c-.12-.17-.12-.17-.11-.62l.2-.2h.17l.2.2A.9.9,0,0,1,166.77,190.26Z"/><path d="M170.13,189.57a.25.25,0,0,1-.31.2c-.09-.1,0-.2,0-.28s.08-.05.12-.05S170.05,189.53,170.13,189.57Z"/><path d="M167.07,193h.2l.2.25a.68.68,0,0,1-.11.47c-.11,0-.16.15-.29.08Z"/><path d="M157.67,198.55h2.73a5,5,0,0,1,0-.67c0-.21-.12-.38-.1-.59a1.39,1.39,0,0,0,0-.61,3.92,3.92,0,0,1-.08-.76h3.48V195l.57.31c.77.39,1.49.85,2.27,1.22.2.1.39.25.6.33a.24.24,0,0,1,.13.18,8.82,8.82,0,0,0-1.2,1.8,9.13,9.13,0,0,0-.54,1.43c-.21.63-.38,1.27-.58,1.91a5.39,5.39,0,0,1-.77,1.58,4.85,4.85,0,0,1-1.07,1.05,3.81,3.81,0,0,1-1,.51,1.18,1.18,0,0,1-.67,0,2,2,0,0,1-1.27-.92,8.74,8.74,0,0,1-.87-1.62c0-.3-.21-.53-.28-.8a4.81,4.81,0,0,0-.28-.75c-.11-.26-.19-.53-.3-.78-.18-.4-.36-.8-.51-1.2A1.76,1.76,0,0,1,157.67,198.55Zm3.43.1a.52.52,0,0,0,.08.74h.23a.92.92,0,0,0,.35-.49.12.12,0,0,1,.14,0c0,.13-.17.25,0,.42s0,.2-.12.27h-.66l-.11.11.09.13c.3,0,.56,0,.78,0,0,.1,0,.18.07.24H162c.06-.37-.07-.76.11-1.13l-.14-.26c-.11,0-.18-.13-.35-.07l-.17.25c0,.08-.05.15-.13.22-.14-.1-.21-.21-.06-.36s0-.07,0-.1S161.16,198.65,161.1,198.65Zm-.12,3.1a.54.54,0,0,0,.14.45c.1,0,.12-.07.18-.11-.11-.15-.11-.29.06-.38h.42c0,.07.12.08.11.17a.25.25,0,0,0,0,.38s0,.05,0,.08l-.11.12H161v.14c.14,0,.25.09.4.1h.47c.08.08,0,.18.08.24s.15-.06.21-.14a1.28,1.28,0,0,1,0-1,1,1,0,0,0-.29-.38h-.57Zm1.58-3.55c.12.09.29,0,.43.09-.1.2-.43.13-.45.39.37.28.73,0,1.09,0l0-.13c-.12,0-.27,0-.4,0,.13-.15.36-.16.42-.37s-.09-.11-.12-.16h-.85C162.61,198.06,162.51,198.1,162.56,198.2Zm.58,2.09c.22-.11.38-.15.48-.28s0-.13,0-.2h-.91l-.13.11.12.12c.12,0,.25,0,.39.05a1,1,0,0,0-.51.34l.11.11h.94a.21.21,0,0,0,0-.25Zm-2.16-.06c0,.27.21.2.32.26-.05.17-.3.12-.32.34l.15.1a.63.63,0,0,1,.33-.15.55.55,0,0,0,.48.08c.14-.19.14-.19.08-.63Zm.11-2.3a.58.58,0,0,0,.95-.06v-.44l-.11-.11c-.31,0-.66-.09-1,.12A.63.63,0,0,0,161.09,197.93Zm1.46,1c0,.21.13.22.24.27v.27a.36.36,0,0,0-.23.14l.1.14.76-.25c.18-.06.18-.06.18-.31a2,2,0,0,1-.68-.26Zm.25,3.23v.26c0,.16-.29.07-.24.3.39.05.7-.23,1.06-.26,0-.17,0-.27-.19-.32A3.52,3.52,0,0,0,163,202c-.14,0-.27-.21-.45-.07,0,0,0,.08,0,.1A.24.24,0,0,0,162.8,202.13Zm.63-.66c.15,0,.21-.16.29-.24-.15-.49-.21-.53-.85-.51l-.32.27v.35c.06,0,.09.12.17.12s.1-.09.16-.12c-.14-.14-.1-.26,0-.37h.49c-.1.12,0,.13,0,.21A.19.19,0,0,0,163.43,201.47Zm.19-4.56c-.31-.19-.65,0-1-.09-.07.08-.07.08-.1.23.12.06.27,0,.39,0v.29h.21c.07-.08,0-.22.11-.28s0,0,.09,0,0,.19,0,.28.11.15.22.06Zm-.85,6.52c.08-.12,0-.27.06-.39.26,0,.53,0,.8,0a1,1,0,0,0,0-.11l-.11-.11h-.85l-.1.1v.44C162.63,203.38,162.66,203.48,162.77,203.43Zm-1.78-5h1.06v-.22h-1C161,198.31,161,198.34,161,198.46Zm2.63-.89h-.89a.19.19,0,0,0-.16.12l.09.11h1Zm-2.68,3.57c.24.18.32.18,1.13.13,0-.08,0-.16-.07-.24C161.68,201.1,161.32,201,160.94,201.14Zm1.72.63h1v-.23h-.86a.2.2,0,0,0-.17.08l0,.06Z"/><path d="M161.67,200.64c0-.15,0-.19.09-.18a.11.11,0,0,1,0,.15Z"/><path d="M161.76,197.56l.12.13c-.09.14-.24.16-.39.23a.67.67,0,0,1-.29-.31A2.2,2.2,0,0,1,161.76,197.56Z"/><path d="M163.09,202.28s0,.06,0,.09S163.05,202.31,163.09,202.28Z"/><path d="M159.91,193.22v-.62a5.61,5.61,0,0,0,0-.58c0-.18-.13-.34-.06-.53l.09-.1h3.33l.1.11v4l-.11.11h-3.14l-.13-.13V194c0-.34-.05-.34-.08.15s0,.83,0,1.24c0,.2.12.35.09.55a1.37,1.37,0,0,0,0,.57,6.73,6.73,0,0,1,.09.88,2.65,2.65,0,0,1,.06.8h-2.7c-.26-.7-.57-1.42-.86-2.14-.22-.54-.42-1.09-.64-1.64s-.37-.83-.52-1.27-.35-.82-.49-1.25a2.17,2.17,0,0,1-.16-.38,2.42,2.42,0,0,0-.19-.42h1.76c0-.14-.13-.06-.19-.08a.45.45,0,0,0-.23,0,3.06,3.06,0,0,1-1.35-.07l-1.1-2.68c.08-.06.2,0,.3,0h1.74a1.14,1.14,0,0,0,.63-.16c.34-.14.7-.25,1-.39a.5.5,0,0,1,.24,0,4.48,4.48,0,0,1,.82,0c.61.11,1.23,0,1.83.09s1.11,0,1.66.08a13.2,13.2,0,0,0,1.55.07v3.36c-.09.07-.2,0-.3,0-.6,0-1.19,0-1.78,0-1,0-1.9-.14-2.86-.08a4.72,4.72,0,0,0-1.45-.08.45.45,0,0,1-.31-.11.14.14,0,0,0-.07.14s0,.05,0,0c.93,0,1.85.15,2.78.09a1.2,1.2,0,0,1,.4.11c0,.17,0,.34,0,.52s.13.6.1.92m-1.34,2.41c0-.06,0-.09-.08-.09a.29.29,0,0,0-.42,0c-.18,0-.24.13-.33.22s0,.18.08.2v.14c.06,0,.11,0,.15,0s-.08-.12-.16-.13a.24.24,0,0,1,.08-.21c.07-.06.16-.1.17-.21h.42c0,.06,0,.09.07.05,0,.12,0,.21.11.32C158.55,195.42,158.63,195.33,158.5,195.26Zm-1.08-1.8c-.19,0-.19,0-.39.12.16.08.26-.07.39-.14h.21c0-.05.1-.07.11-.15C157.59,193.22,157.54,193.41,157.42,193.46Zm-.86-1.11c.27.05.45-.12.66-.15.06.05,0,.26.2.12-.12-.13-.06-.35-.23-.46s-.08,0-.09,0l.06.07c-.12.24-.39.2-.56.38a.06.06,0,0,0-.08,0s0,0,0,0S156.6,192.4,156.56,192.35Zm1.64,4.16c-.06-.17-.18-.32-.07-.53s.3-.2.51-.12.06.22.17.32c0-.17.06-.32-.11-.42h-.45a.65.65,0,0,0-.33.42c.08.1.08.28.24.32s0,.11,0,.15l.23,0c-.12.13.09.13.07.24s-.19.11-.13.24a1.39,1.39,0,0,0,.63-.68c-.26.05-.5,0-.73.07C158.24,196.53,158.22,196.48,158.2,196.51Zm-.79-2.06c.22-.14.46-.2.59-.41s0-.32-.23-.37c-.17.16-.45.16-.68.31A.85.85,0,0,0,157.41,194.45Zm4.71-.66.17.29v-.73l-.14.09c-.09,0-.11-.12-.21-.08s-.05.09-.12,0l-.09-.1-.12.22c-.08-.07,0-.24-.19-.16s0,.14-.09.13l-.05-.14c-.09,0-.13,0-.18.08a.21.21,0,0,0-.17-.09h-.74l-.05,0,.14.1c.07.18,0,.31.08.44.09-.12,0-.27.1-.35s0-.08.1,0v.27c.09.06.13.18.25.19.27.07.2-.27.37-.31l.13.33c.1-.05,0-.15.12-.18s.08.24.27.15-.06-.32.18-.39V194Zm-4-5.24a.69.69,0,0,0-.57.82,1.27,1.27,0,0,0,.38.5.67.67,0,0,0,.52-.1c.09-.23.26-.43.16-.7S158.54,188.76,158.15,188.55Zm2.83.38a1,1,0,0,0-.53-.37c-.3.11-.3.11-.45.35v.69l.27.27a.56.56,0,0,0,.71-.44Zm-1.49-.28v.4a1,1,0,0,1-.43,0v-.37h-.13c-.06.25,0,.51-.1.74.15.14,0,.34.11.49.05,0,.09,0,.13,0v-.4c.12-.17.27-.14.42-.11v.44l.12.11.12-.1v-1.12Zm-2.76.89-.13.13a.66.66,0,0,0,.62.21l.19-.19v-.45a.73.73,0,0,0-.47-.2c0-.09-.05-.17,0-.23s.28.18.46,0c-.05-.22-.25-.23-.43-.31-.07.13-.24.09-.31.22v.35c.16.18.45.17.55.42C157.09,189.71,156.92,189.63,156.73,189.54Zm4.75,3.35h.06l.05.14.1-.1a.56.56,0,0,0,.64,0c.07,0,.11.16.21.06-.14-.16,0-.42-.23-.56-.24.07-.13.38-.35.51v-.48c-.11-.05-.15,0-.2.07s-.08-.11-.17-.08l-.11.12Zm-.91-.33c0-.12-.09-.17-.2-.21a.54.54,0,0,0-.2.56c.08.06.12.18.26.2s.24-.14.39-.1c0-.14.07-.17.12-.24.08.09,0,.19.08.25s.08,0,.1,0v-.56H161c-.09,0,0,.19-.13.17s0-.25-.21-.15,0,.31-.05.46c-.29,0-.3,0-.29-.3C160.41,192.58,160.51,192.65,160.57,192.56Zm-3,.16c-.15-.1-.23-.14-.29-.11s-.42.11-.59.27c0,0,0,0,0,.06s.24-.21.38,0c0,.12-.13.17-.2.25s-.09.1,0,.16l.23-.24h.38C157.62,193,157.59,192.85,157.58,192.72Zm0,2.36c.07-.12,0-.2,0-.29s.18-.17.31-.08,0,.11.06.12,0-.31.22-.32,0,.23.21.23c.06-.15-.11-.2-.11-.31a2.12,2.12,0,0,0-.88.28C157.49,194.8,157.37,195,157.56,195.08Zm3.69-2.63c0,.49,0,.49.13.65v-.65Zm1.51.41c.06-.06.06-.11,0-.17s-.08,0-.11,0a.11.11,0,0,0,0,.14Z"/><path d="M160.83,193.56l.14.07c0,.13-.07.15-.12.24l-.13-.18C160.71,193.61,160.81,193.58,160.83,193.56Z"/><path d="M158.41,189v.43l-.2.2H158l-.2-.21a.63.63,0,0,1,.2-.61C158.22,188.73,158.29,188.9,158.41,189Z"/><path d="M160.73,189.06v.45l-.11.11h-.27a.51.51,0,0,1-.1-.71l.27-.12Z"/><path d="M157.23,194.07l.17-.14c.12,0,.17.08.17.31C157.43,194.3,157.32,194.25,157.23,194.07Z"/><path d="M157.92,194.1h-.21c-.09-.13,0-.22.07-.32s.08.1.14.1Z"/><path d="M158.57,196.67h.21l-.2.08S158.58,196.74,158.57,196.67Z"/><path d="M157.35,193.09l-.18-.19a.21.21,0,0,1,.17-.21c.13,0,.06.18.15.2Z"/></g></svg>